<?xml version="1.0" standalone="no"?>
<!DOCTYPE svg PUBLIC "-//W3C//DTD SVG 20010904//EN"
 "http://www.w3.org/TR/2001/REC-SVG-20010904/DTD/svg10.dtd">
<svg version="1.0" xmlns="http://www.w3.org/2000/svg"
 width="564.000000pt" height="564.000000pt" viewBox="0 0 564.000000 564.000000"
 preserveAspectRatio="xMidYMid meet">

<g transform="translate(0.000000,564.000000) scale(0.100000,-0.100000)"
fill="#000000" stroke="none">
<path d="M0 2820 l0 -2820 1821 0 1820 0 -30 37 c-17 21 -31 42 -31 47 0 11
49 56 61 56 4 0 33 -31 66 -70 l58 -70 938 0 937 0 0 1230 0 1230 -67 0 c-78
0 -333 32 -440 54 -40 9 -100 18 -134 20 -33 2 -63 7 -66 10 -9 9 98 101 126
107 31 7 264 -13 410 -35 58 -9 119 -16 138 -16 l33 0 0 1520 0 1520 -2820 0
-2820 0 0 -2820z m3455 1782 c-3 -3 -11 0 -18 7 -9 10 -8 11 6 5 10 -3 15 -9
12 -12z m10 -42 c8 -13 -5 -13 -25 0 -13 8 -13 10 2 10 9 0 20 -4 23 -10z m48
-20 c3 -11 3 -20 1 -20 -2 0 -8 9 -14 20 -6 11 -7 20 -2 20 6 0 12 -9 15 -20z
m101 4 c4 -10 1 -14 -6 -12 -15 5 -23 28 -10 28 5 0 13 -7 16 -16z m-28 -32
c-4 -3 -11 0 -16 8 -15 24 -11 33 6 15 9 -9 13 -19 10 -23z m-99 13 c0 -11 -4
-12 -14 -4 -7 6 -13 13 -13 15 0 2 6 4 13 4 8 0 14 -7 14 -15z m48 -22 c-19
-15 -19 -15 10 -9 24 5 27 4 12 -4 -9 -6 -27 -8 -38 -5 -20 7 -20 7 -2 21 25
19 42 17 18 -3z m82 -55 c-3 -7 -5 -2 -5 12 0 14 2 19 5 13 2 -7 2 -19 0 -25z
m20 10 c-3 -8 -6 -5 -6 6 -1 11 2 17 5 13 3 -3 4 -12 1 -19z m70 -10 c-3 -8
-6 -5 -6 6 -1 11 2 17 5 13 3 -3 4 -12 1 -19z m-317 2 c0 -5 6 -10 14 -10 21
0 30 -20 17 -33 -9 -9 -10 -7 -5 7 6 15 4 18 -7 14 -9 -4 -20 2 -27 13 -8 12
-8 19 -2 19 5 0 10 -4 10 -10z m424 -19 c13 -20 126 -90 194 -120 82 -36 214
-57 302 -47 59 6 230 59 266 83 20 12 24 12 47 -9 25 -22 26 -29 33 -174 l7
-151 -31 -31 c-16 -17 -33 -46 -37 -64 -4 -18 -12 -39 -18 -46 -5 -7 -7 -15
-4 -19 4 -3 9 2 13 11 3 9 12 16 20 16 8 0 14 8 14 19 0 19 23 81 35 93 4 3
23 -25 42 -63 44 -84 122 -151 180 -154 54 -4 84 -44 71 -94 -5 -20 -14 -60
-19 -89 -5 -30 -21 -81 -34 -115 -25 -61 -33 -137 -15 -137 9 0 14 14 11 33
-1 4 15 43 35 86 49 109 83 116 110 25 19 -66 14 -82 -36 -128 -22 -20 -40
-38 -40 -40 0 -2 18 -7 40 -11 42 -7 80 0 80 15 0 5 -11 5 -24 -1 -15 -7 -30
-8 -41 -2 -15 9 -14 12 8 39 13 16 26 35 28 43 3 9 15 0 33 -24 23 -30 26 -39
15 -47 -11 -8 -10 -8 5 -4 12 4 30 -4 55 -27 20 -18 55 -46 78 -62 86 -61 94
-139 27 -272 -31 -62 -60 -99 -144 -183 -98 -98 -113 -109 -232 -168 -70 -35
-156 -81 -190 -101 -283 -169 -303 -179 -365 -180 -18 -1 -33 -6 -33 -12 0 -8
19 -10 59 -7 47 3 72 13 132 49 105 63 147 88 209 121 30 17 60 34 65 38 13
10 147 80 152 80 3 0 -30 -37 -72 -82 -120 -129 -163 -196 -225 -343 -7 -16
-15 -68 -18 -115 -2 -47 -10 -88 -16 -92 -8 -6 -8 -8 0 -8 6 0 14 -26 17 -57
6 -54 34 -143 50 -159 13 -14 7 -47 -17 -88 -15 -27 -29 -78 -40 -146 -10 -58
-28 -172 -42 -255 -33 -195 -41 -405 -21 -500 9 -38 14 -71 13 -73 -2 -1 -28
7 -57 19 -30 11 -99 37 -154 56 -55 19 -152 54 -215 78 -63 24 -167 58 -230
76 -63 17 -117 33 -119 35 -3 3 1 10 7 16 18 18 14 46 -8 53 -11 3 -25 15 -30
26 -9 16 -7 19 10 19 27 0 21 24 -6 29 -22 4 -52 28 -65 52 -8 15 -4 16 31 7
53 -14 70 -6 70 32 0 26 -6 33 -34 45 -43 18 -54 35 -24 36 13 0 -2 9 -35 19
-54 17 -142 68 -134 77 2 2 28 -8 58 -22 30 -13 70 -24 89 -24 19 1 70 -10
112 -25 84 -29 98 -31 98 -16 0 6 -5 10 -12 10 -6 0 -49 18 -95 41 -62 30 -85
47 -89 65 -7 29 -68 84 -93 84 -10 0 -26 9 -36 20 -17 19 -17 20 1 20 10 -1
30 -7 44 -15 27 -15 135 -20 144 -7 3 5 -21 21 -52 36 -69 34 -149 95 -155
119 -6 22 2 22 19 0 11 -15 13 -15 13 -3 0 23 -20 54 -68 105 l-43 46 37 -7
c54 -10 39 8 -45 51 -37 20 -76 45 -85 54 -15 17 -13 19 25 25 23 4 38 11 35
16 -8 14 -2 13 31 -5 39 -20 156 -20 194 0 37 19 38 27 3 19 -25 -5 -24 -3 10
18 22 14 40 28 40 33 1 4 -41 7 -93 7 l-95 -1 41 18 c43 20 61 37 50 49 -4 3
-64 9 -134 13 -80 5 -146 14 -177 25 l-50 18 35 14 c19 7 45 23 57 35 20 17
27 19 48 9 36 -17 55 -14 25 3 -18 10 -54 14 -122 13 -54 -1 -100 1 -103 4 -3
3 10 29 30 58 19 28 35 55 35 59 0 3 38 20 85 36 47 16 85 32 85 36 0 8 -21 4
-106 -21 -108 -32 -214 -44 -280 -30 -116 24 -199 74 -320 193 -153 150 -184
193 -184 255 0 102 103 182 283 223 66 14 84 29 35 29 -48 0 -146 -27 -177
-49 -14 -10 -35 -21 -46 -24 -42 -14 41 44 114 79 65 32 82 36 145 35 84 -2
137 -14 191 -46 66 -38 239 -113 277 -120 29 -6 38 -3 50 14 14 20 8 28 -126
163 -78 79 -175 181 -215 228 -41 47 -101 116 -135 154 -34 38 -60 73 -58 78
1 5 -2 7 -7 4 -13 -8 -91 82 -91 105 0 12 7 19 20 19 13 0 20 -7 20 -20 0 -11
5 -20 12 -20 6 0 8 3 5 7 -13 13 16 33 49 33 73 0 106 32 44 43 -18 3 -15 5
13 6 29 1 46 10 77 41 22 22 40 45 40 50 0 6 -19 8 -50 4 -31 -4 -50 -2 -50 4
0 6 6 13 13 15 7 3 5 6 -5 6 -10 1 -18 6 -18 12 0 8 7 7 23 -2 30 -19 60 -17
63 4 1 9 -3 17 -8 17 -11 0 -37 29 -38 43 0 4 12 7 28 7 41 0 70 10 76 27 3 7
2 12 -3 9 -14 -9 -55 29 -47 42 4 7 12 12 17 12 6 0 8 -4 4 -9 -3 -6 5 -15 17
-22 21 -11 22 -11 10 4 -12 14 -10 15 10 13 13 -1 33 -8 45 -14 42 -23 123 -9
123 21 0 7 12 23 26 36 13 13 29 32 34 41 8 15 4 16 -30 13 -44 -4 -63 12 -24
21 19 5 24 11 19 25 -3 12 0 21 10 25 10 3 15 15 13 28 -3 24 37 58 67 58 8 0
15 4 15 8 0 10 159 92 177 92 28 0 30 -68 3 -97 -26 -29 -60 -85 -60 -100 0
-27 17 -10 65 63 64 97 67 99 90 64 11 -17 31 -34 45 -38 l25 -9 1 72 c1 39 4
84 8 98 6 26 29 36 40 18z m-295 -14 c18 1 20 -1 10 -8 -8 -5 -22 -6 -32 -3
-10 3 -24 0 -32 -6 -8 -7 -20 -10 -27 -7 -8 4 -7 6 5 6 20 1 23 17 5 25 -7 3
1 2 17 -1 17 -4 41 -7 54 -6z m193 -19 c-7 -7 -12 -8 -12 -2 0 6 3 14 7 17 3
4 9 5 12 2 2 -3 -1 -11 -7 -17z m-11 -65 c13 -17 13 -17 -6 -3 -11 8 -22 16
-24 17 -2 2 0 3 6 3 6 0 17 -8 24 -17z m-441 -87 c0 -2 -9 -2 -20 1 -11 3 -20
9 -20 15 0 5 9 4 20 -2 11 -6 20 -12 20 -14z m35 14 c3 -6 -1 -7 -9 -4 -18 7
-21 14 -7 14 6 0 13 -4 16 -10z m-435 -541 c0 -5 -11 -9 -25 -9 -14 0 -25 4
-25 9 0 5 11 9 25 9 14 0 25 -4 25 -9z m-230 -767 c0 -4 -10 -13 -22 -21 -23
-14 -23 -14 -4 8 20 22 26 25 26 13z m1013 -1019 c-7 -2 -19 -2 -25 0 -7 3 -2
5 12 5 14 0 19 -2 13 -5z m-192 -180 c13 -16 12 -17 -3 -4 -17 13 -22 21 -14
21 2 0 10 -8 17 -17z m74 -183 c10 -11 16 -20 13 -20 -3 0 -13 9 -23 20 -10
11 -16 20 -13 20 3 0 13 -9 23 -20z m160 -168 c4 -10 -6 -5 -24 12 -17 17 -31
31 -31 33 0 10 49 -31 55 -45z m-164 22 c10 -9 50 -33 91 -55 81 -43 86 -50
12 -17 -62 27 -150 88 -128 88 4 0 15 -7 25 -16z m434 -561 c86 -24 184 -61
195 -72 3 -4 10 -7 15 -7 35 -5 243 -79 239 -86 -3 -4 2 -5 10 -2 9 3 16 1 16
-6 0 -6 4 -9 10 -5 5 3 42 -10 82 -28 40 -19 111 -51 158 -71 155 -68 156 -68
178 -111 11 -22 24 -51 27 -65 4 -14 14 -36 22 -48 8 -13 12 -26 10 -29 -3 -2
-60 14 -127 36 -67 23 -163 52 -214 65 -50 14 -149 43 -221 66 -71 22 -188 56
-260 74 -108 28 -132 38 -142 58 -20 38 -16 49 15 42 109 -26 605 -186 727
-234 142 -56 187 -70 183 -58 -3 7 -31 23 -64 35 -32 13 -68 27 -79 33 -32 16
-216 81 -260 91 -22 6 -71 21 -110 34 -38 13 -131 42 -205 64 -239 72 -240 73
-240 93 0 10 -3 18 -8 18 -4 0 -13 15 -21 33 -8 17 -24 46 -36 62 -36 50 -37
54 -13 48 13 -3 64 -16 113 -30z m-705 -22 c214 -44 399 -87 538 -123 111 -29
125 -36 139 -61 8 -16 13 -30 11 -31 -2 -2 -65 14 -141 35 -303 83 -674 141
-917 142 l-175 2 -205 -73 c-113 -39 -214 -72 -224 -72 -35 0 -1 22 86 56 81
31 368 145 398 158 8 3 89 4 180 2 134 -3 192 -10 310 -35z m-75 -156 c229
-19 380 -44 667 -115 135 -33 138 -34 138 -62 0 -17 -4 -19 -27 -13 -28 7
-197 40 -353 69 -274 50 -632 87 -835 85 -44 0 -206 -43 -260 -69 -11 -5 -86
-32 -167 -59 -146 -48 -166 -49 -135 -7 14 19 345 140 482 177 78 21 178 19
490 -6z m895 -169 c149 -43 638 -177 735 -201 137 -34 149 -39 141 -71 -4 -13
-2 -24 4 -24 5 0 17 -15 26 -32 9 -18 20 -35 23 -38 3 -3 20 -20 36 -38 l30
-34 -30 7 c-16 4 -62 20 -102 35 -51 19 -75 24 -82 17 -8 -8 -11 -6 -11 6 0
26 -30 21 -31 -5 -1 -21 -2 -21 -6 -3 -6 22 -33 64 -33 51 0 -5 -6 -4 -12 2
-12 9 -95 36 -283 92 -33 9 -156 41 -272 70 -218 55 -229 60 -204 99 7 11 31
8 137 -18 71 -17 152 -37 179 -43 129 -30 230 -59 233 -67 2 -6 10 -7 17 -5 8
3 31 0 52 -7 21 -7 45 -13 53 -14 8 -1 38 -10 65 -19 28 -10 59 -20 70 -22 11
-2 32 -6 48 -10 30 -6 38 11 10 20 -224 67 -708 189 -798 202 -60 8 -75 18
-75 51 0 16 5 23 13 20 6 -2 37 -12 67 -21z m-657 -71 c25 -4 37 -11 37 -22 0
-42 29 -101 72 -148 26 -29 48 -54 48 -56 0 -2 -22 -4 -50 -4 -42 1 -55 6 -84
34 -20 20 -47 64 -66 110 -17 42 -33 81 -36 87 -5 11 0 11 79 -1z m1642 -206
c0 -36 -3 -45 -18 -45 -14 0 -17 6 -12 31 3 22 3 25 -3 10 -9 -19 -9 -19 -21
4 -9 17 -10 21 -1 16 7 -4 14 1 17 14 3 13 12 21 22 19 12 -3 16 -15 16 -49z
m-908 -22 c23 -17 -3 -45 -39 -42 -18 1 -32 6 -31 11 3 11 32 14 39 3 7 -13
24 -1 24 17 0 8 -10 14 -26 14 -14 0 -23 4 -19 10 6 10 31 4 52 -13z m-92 -16
c-3 -11 1 -26 10 -35 9 -9 12 -16 6 -16 -15 0 -34 39 -27 56 8 21 18 17 11 -5z
m454 -21 c4 -3 4 -18 0 -35 -5 -23 -7 -25 -8 -8 0 12 -5 24 -10 27 -4 3 -6 18
-3 33 5 23 7 24 10 8 2 -11 7 -22 11 -25z m-894 -10 c17 -19 17 -20 -6 -39
-34 -28 -41 -26 -78 19 l-32 40 49 0 c36 0 54 -5 67 -20z m575 10 c0 -14 27
-12 33 3 3 9 9 7 23 -5 17 -16 19 -16 36 -1 10 9 18 11 18 6 0 -6 -7 -16 -15
-23 -11 -10 -18 -10 -29 -1 -8 7 -25 9 -38 6 -16 -4 -29 -1 -37 9 -9 11 -10
16 -2 16 6 0 11 -4 11 -10z m164 -5 c-7 -17 11 -21 21 -5 8 13 25 3 25 -14 0
-10 -9 -12 -31 -7 -16 3 -30 9 -30 14 1 4 1 12 1 17 0 6 4 10 10 10 5 0 7 -7
4 -15z m106 1 c0 -2 3 -13 6 -23 6 -16 5 -15 -9 2 -14 19 -16 19 -22 3 -4 -10
-11 -18 -16 -18 -14 0 -11 28 4 33 16 7 37 8 37 3z m176 -52 c-6 -21 -11 -25
-29 -19 -12 3 -31 7 -42 8 -11 1 -21 11 -23 22 -4 19 -3 19 10 1 15 -18 15
-18 22 0 7 18 9 17 17 -4 12 -31 33 -23 38 14 2 16 6 23 8 16 3 -7 2 -24 -1
-38z m60 35 c3 -6 1 -16 -6 -22 -10 -9 -12 -8 -7 6 4 9 3 17 -2 17 -16 0 -19
-40 -4 -49 9 -5 12 -11 5 -15 -5 -3 -15 1 -22 9 -10 12 -10 21 -2 40 12 27 27
32 38 14z m71 -9 c4 -13 3 -13 -6 0 -12 17 -27 6 -33 -25 -2 -11 -6 -15 -10
-10 -3 6 -2 20 3 33 10 26 40 27 46 2z m-650 -6 c-3 -3 -12 -4 -19 -1 -8 3 -5
6 6 6 11 1 17 -2 13 -5z m1033 -74 c12 -8 11 -10 -7 -10 -13 0 -23 5 -23 10 0
13 11 13 30 0z"/>
<path d="M3854 4274 c-16 -33 -24 -39 -55 -42 -31 -3 -59 -27 -234 -197 -109
-107 -211 -200 -227 -207 -15 -7 -30 -18 -33 -25 -7 -21 57 -15 85 7 30 23 40
25 40 6 0 -18 48 -30 65 -16 7 6 20 8 28 4 33 -12 223 69 302 129 22 17 42 32
44 34 2 2 2 6 -2 9 -3 3 -18 -2 -34 -13 -31 -21 -128 -73 -136 -73 -3 0 -4 8
-3 18 1 14 -6 16 -34 14 l-34 -3 29 31 c17 18 44 37 61 45 17 7 56 37 87 67
39 39 59 52 66 45 8 -8 11 -6 11 5 0 9 -4 20 -10 23 -20 12 -9 36 25 56 19 12
35 27 35 34 0 7 9 24 21 39 23 29 16 32 -21 11 -28 -16 -44 -19 -36 -6 3 4 -1
16 -8 26 -12 17 -14 15 -32 -21z"/>
<path d="M4203 4202 c-50 -4 -59 -22 -10 -21 33 0 116 15 107 19 -10 5 -56 6
-97 2z"/>
<path d="M3928 3994 c-9 -8 7 -59 18 -56 5 1 9 7 8 12 -1 6 -2 19 -2 30 -2 19
-13 26 -24 14z"/>
<path d="M4695 3825 c-16 -8 -23 -14 -14 -15 8 0 24 7 35 15 23 18 18 18 -21
0z"/>
<path d="M4638 3803 c7 -3 16 -2 19 1 4 3 -2 6 -13 5 -11 0 -14 -3 -6 -6z"/>
<path d="M3450 2902 c0 -26 27 -49 41 -35 17 17 6 48 -19 51 -16 3 -22 -2 -22
-16z"/>
<path d="M2775 2903 c-26 -7 -67 -35 -61 -41 3 -3 12 1 20 7 30 25 425 11 452
-16 9 -10 14 -37 14 -82 0 -103 44 -149 112 -117 18 8 44 16 58 18 22 3 19 6
-25 26 -68 31 -84 47 -116 119 -16 34 -33 64 -38 67 -19 12 -383 29 -416 19z"/>
<path d="M2916 2822 c-9 -18 -35 -51 -57 -73 -50 -50 -47 -70 3 -29 44 37 81
93 76 117 -3 14 -8 10 -22 -15z"/>
<path d="M3101 2803 c-2 -59 39 -160 83 -207 36 -39 48 -45 98 -51 32 -4 70
-4 85 0 26 7 26 8 8 15 -11 5 -45 9 -76 9 -48 1 -59 5 -87 32 -33 33 -91 143
-93 175 0 11 -4 28 -9 39 -7 17 -9 15 -9 -12z"/>
<path d="M2960 2672 c0 -25 28 -77 54 -101 18 -17 26 -35 26 -57 0 -51 27 -64
137 -64 104 0 188 23 231 62 27 26 68 105 59 115 -4 3 -11 -6 -17 -21 -5 -15
-16 -33 -23 -41 -6 -7 -20 -22 -29 -33 -29 -36 -147 -65 -240 -60 -85 5 -98
13 -98 58 0 14 -14 39 -34 60 -19 19 -42 49 -50 65 -9 17 -16 24 -16 17z"/>
<path d="M3690 2488 c0 -56 -23 -78 -83 -79 -47 0 -139 -14 -127 -19 3 -1 34
-4 70 -6 95 -7 126 1 152 40 l23 33 125 -32 c69 -18 156 -43 195 -54 38 -12
74 -19 80 -17 30 10 -259 104 -377 121 -23 4 -38 11 -38 20 0 8 -4 17 -10 20
-6 4 -10 -7 -10 -27z"/>
<path d="M3720 2394 c0 -21 24 -92 51 -152 30 -64 32 -93 5 -56 -8 10 -17 17
-19 14 -3 -3 51 -63 119 -134 69 -71 127 -127 129 -124 3 2 -30 40 -73 84 -57
59 -83 94 -101 139 -14 33 -37 88 -53 122 -15 34 -28 65 -28 70 -1 12 -30 49
-30 37z"/>
<path d="M3940 2251 c0 -5 16 -12 35 -15 19 -4 59 -18 87 -31 29 -14 60 -24
68 -24 13 1 13 1 0 6 -8 3 -37 16 -63 29 -27 13 -57 24 -67 24 -10 0 -22 5
-25 10 -8 12 -35 13 -35 1z"/>
<path d="M3942 2225 c0 -5 6 -26 13 -45 7 -19 14 -28 14 -20 0 8 -6 29 -14 45
-7 17 -13 26 -13 20z"/>
<path d="M3715 2210 c-3 -5 1 -10 10 -10 9 0 13 5 10 10 -3 6 -8 10 -10 10 -2
0 -7 -4 -10 -10z"/>
<path d="M3650 2175 c-19 -14 -31 -25 -26 -25 13 0 66 34 66 42 0 11 0 11 -40
-17z"/>
<path d="M3490 2160 c20 -13 33 -13 25 0 -3 6 -14 10 -23 10 -15 0 -15 -2 -2
-10z"/>
<path d="M3550 2150 c19 -13 30 -13 30 0 0 6 -10 10 -22 10 -19 0 -20 -2 -8
-10z"/>
<path d="M3976 2105 c3 -22 10 -44 15 -49 13 -14 10 13 -7 54 l-14 35 6 -40z"/>
<path d="M4405 2066 c27 -14 51 -24 52 -22 6 6 -45 35 -73 42 -20 4 -13 -2 21
-20z"/>
<path d="M4475 2030 c3 -5 12 -10 19 -10 8 0 19 -6 25 -14 10 -12 51 -29 51
-21 0 4 -87 55 -95 55 -3 0 -3 -4 0 -10z"/>
<path d="M3920 1820 c0 -16 1 -20 86 -275 62 -187 150 -418 184 -480 19 -36
20 -37 15 -10 -4 16 -15 48 -25 71 -27 57 -118 310 -179 494 -53 159 -80 227
-81 200z"/>
</g>
</svg>
